<svg xmlns="http://www.w3.org/2000/svg" xmlns:xlink="http://www.w3.org/1999/xlink" width="320px" height="300px" viewBox="0 0 320 300"><title>M</title><defs><rect id="path-1" x="0" y="0" width="320" height="300"></rect></defs><g id="UI-mobile-v1" stroke="none" stroke-width="1" fill="none" fill-rule="evenodd"><g id="1a-M-homepage" transform="translate(0.000000, -3632.000000)"><g id="Footer/Mobile" transform="translate(0.000000, 3436.000000)"><g id="M" transform="translate(0.000000, 196.000000)"><mask id="mask-2" fill="white"><use xlink:href="#path-1"></use></mask><g id="Mask"></g><path d="M125.751293,274.041562 C87.0431184,263.588229 94.521591,203.318693 103.17787,133.534193 C104.931492,119.422195 107.194307,101.177484 108.30311,86.491768 C105.521584,90.0313149 102.309386,94.3974043 98.6355838,99.7820858 C86.5934107,117.436062 73.5851988,140.051724 61.0052799,161.918636 C46.8240209,186.569052 33.4303452,209.853241 21.0074672,227.07936 C14.1048107,236.650236 -2.28929572,259.375294 -22.8949506,259.377725 C-27.1255342,259.377725 -31.5321939,258.419908 -36.0744797,256.193105 C-66.8616123,241.094118 -66.5094602,194.185398 -66.1025818,139.866968 C-66.0692701,135.593256 -66.0383379,131.30739 -66.0240614,127.038541 L-65.9407822,104.109279 L-21.0556698,104.27945 L-21.1365696,127.208712 C-21.1532255,131.535905 -21.1865372,135.884977 -21.2174694,140.219464 C-21.3626132,159.400112 -21.5791391,188.409324 -18.7286109,204.886693 C-6.92675777,189.505709 10.0812354,159.939796 22.3066228,138.683067 C61.785725,70.0557267 92.9749772,15.8539847 131.016918,27.4912173 C155.089368,34.8596009 154.101914,65.5437769 153.67838,78.646907 C153.133496,95.5813049 150.497114,116.816155 147.708451,139.300543 C145.124416,160.134277 140.939041,193.847488 140.989008,215.519919 C154.375546,195.478694 172.444754,160.457601 184.567827,136.966776 C228.17044,52.4576638 252.497485,8.77245999 286.15894,17.592155 C313.821913,24.8389882 317.055525,58.6251297 318.273781,71.3441606 C320.329588,92.7978014 319.722839,252.41775 319.722839,252.41775 L274.794898,252.257304 C274.794898,252.257304 275.470649,90.7752032 273.26494,71.6893637 C259.012298,91.0255969 237.983109,131.781437 224.272973,158.352348 C187.43977,229.736451 163.988345,275.186566 134.091111,275.186566 C131.36907,275.186566 128.594683,274.80976 125.751293,274.041562 Z" fill="#00CFB4" mask="url(#mask-2)"></path></g></g></g></g></svg>